<?xml version="1.0" encoding="utf-8"?>
<!-- Generator: Adobe Illustrator 26.2.1, SVG Export Plug-In . SVG Version: 6.00 Build 0)  -->
<svg version="1.1" id="Layer_1" xmlns="http://www.w3.org/2000/svg" xmlns:xlink="http://www.w3.org/1999/xlink" x="0px" y="0px"
	 viewBox="0 0 386.8 88.8" style="enable-background:new 0 0 386.8 88.8;" xml:space="preserve">
<style type="text/css">
	.st0{fill:#FFFFFF;}
	.st1{fill:url(#SVGID_1_);}
	.st2{fill:url(#SVGID_00000142877522779224049170000017594873593311272091_);}
	.st3{fill:url(#SVGID_00000091715769516385482780000016594931651778092717_);}
	.st4{clip-path:url(#SVGID_00000111184015301191559750000000417334782441611435_);}
	.st5{clip-path:url(#SVGID_00000119814518848971815510000013047795664185749437_);}
</style>
<g>
	<g>
		<path class="st0" d="M94,43.7c0-3.2-0.1-5.6-0.3-8.4h3.2l0.3,6.2h0.2c2.2-4,5.6-7,11.4-7c4.9,0,8.6,3.2,10.1,7.7h0.2
			c1-2.1,2.3-3.7,3.6-4.8c2.3-1.9,4.6-2.9,8.4-2.9c3.4,0,11.4,1.9,11.4,15.2v20.7h-3.5V50.1c0-7.9-3.1-12.6-9.1-12.6
			c-4.4,0-7.8,3.2-9.2,7c-0.3,1-0.6,2.2-0.6,3.5v22.5h-3.5V48.5c0-6.3-3-11-8.7-11c-4.7,0-8.4,3.8-9.7,7.9c-0.3,1-0.5,2.2-0.5,3.4
			v21.6H94L94,43.7L94,43.7z"/>
		<path class="st0" d="M154.3,52.6c0,11.2,6.1,15.6,13.3,15.6c5.1,0,7.8-1,9.8-2l0.9,2.7c-1.4,0.7-4.9,2.2-11.1,2.2
			c-10.1,0-16.4-7.3-16.4-17.6c0-11.7,6.7-19,15.8-19c11.5,0,13.7,10.8,13.7,15.8c0,1,0,1.5-0.1,2.2L154.3,52.6L154.3,52.6z
			 M176.7,49.8c0.1-4.9-1.9-12.3-10.5-12.3c-7.7,0-11.1,6.9-11.7,12.3H176.7z"/>
		<path class="st0" d="M216.2,61.9c0,3.1,0.1,5.9,0.3,8.6h-3.2l-0.2-6.2h-0.1c-1.8,3.2-5.8,7-12,7c-4.5,0-11.9-2.2-11.9-15.5V35.4
			h3.5v19.7c0,7.7,2.4,13.1,9.3,13.1c5.1,0,8.9-3.6,10.3-7.1c0.4-1.1,0.7-2.5,0.7-3.9V35.4h3.5L216.2,61.9L216.2,61.9z"/>
		<path class="st0" d="M227.9,70.4V42.9h-4.7v-8.2h4.7v-1.5c0-9.8,7.6-15.4,18.7-15.4c3.8,0,8.3,0.9,10.5,2.2l-2.1,8.4
			c-1.7-0.9-4.6-1.8-8.1-1.8c-5.8,0-7.9,3-7.9,6.9v1.2h21.7v35.8h-11.1V42.9H239v27.6H227.9z"/>
		<path class="st0" d="M269.5,60.7c2,1.2,6.3,2.7,9.5,2.7c3.4,0,4.8-1.1,4.8-3c0-1.8-1.1-2.8-5.2-4.1c-7.4-2.4-10.2-6.5-10.2-10.7
			c0-6.7,5.7-11.8,14.5-11.8c4.2,0,7.9,1,10.1,2.1l-1.9,7.7c-1.6-0.8-4.7-2-7.8-2c-2.7,0-4.3,1.1-4.3,2.9c0,1.7,1.4,2.6,5.8,4.1
			c6.8,2.3,9.6,5.8,9.7,11c0,6.7-5.2,11.6-15.5,11.6c-4.7,0-8.9-1.1-11.6-2.5L269.5,60.7z"/>
		<path class="st0" d="M328,69.5c-2,0.9-5.7,1.7-10,1.7c-11.5,0-18.9-7.1-18.9-18.3c0-10.5,7.1-19,20.4-19c2.9,0,6.2,0.5,8.5,1.4
			l-1.7,8.3c-1.3-0.6-3.3-1.1-6.2-1.1c-5.9,0-9.6,4.2-9.6,10c0,6.6,4.4,10,9.8,10c2.7,0,4.7-0.5,6.4-1.2L328,69.5z"/>
		<path class="st0" d="M354.8,70.4l-0.7-3.6h-0.2c-2.3,2.8-6,4.4-10.2,4.4c-7.3,0-11.6-5.2-11.6-10.9c0-9.3,8.3-13.7,21-13.7v-0.5
			c0-1.9-1-4.6-6.5-4.6c-3.6,0-7.5,1.2-9.9,2.7l-2-7.1c2.5-1.4,7.4-3.2,13.9-3.2c11.9,0,15.7,7,15.7,15.4v12.5
			c0,3.4,0.2,6.6,0.6,8.7L354.8,70.4L354.8,70.4z M353.4,53.5c-5.9,0-10.4,1.4-10.4,5.6c0,2.9,1.9,4.3,4.4,4.3c2.7,0,5-1.8,5.8-4.1
			c0.2-0.6,0.2-1.3,0.2-1.9V53.5z"/>
		<path class="st0" d="M373,18.6h11.1v51.9H373V18.6z"/>
	</g>
	<g>
		
			<linearGradient id="SVGID_1_" gradientUnits="userSpaceOnUse" x1="2.14" y1="45.6856" x2="2.14" y2="45.6856" gradientTransform="matrix(1 0 0 -1 0 89.2756)">
			<stop  offset="0" style="stop-color:#59236B"/>
			<stop  offset="0.4796" style="stop-color:#7251A1"/>
			<stop  offset="1" style="stop-color:#00BFEF"/>
		</linearGradient>
		<path class="st1" d="M2.1,43.6"/>
	</g>
</g>
<g>
	
		<linearGradient id="SVGID_00000091696725546357479570000015975112052212810148_" gradientUnits="userSpaceOnUse" x1="-200.4485" y1="594.8521" x2="-199.4485" y2="594.8521" gradientTransform="matrix(-68.1949 -57.5545 57.5545 -68.1949 -47831.9609 29104.1309)">
		<stop  offset="0" style="stop-color:#59236A"/>
		<stop  offset="0.4796" style="stop-color:#7252A2"/>
		<stop  offset="1" style="stop-color:#00BFEF"/>
	</linearGradient>
	<path style="fill:url(#SVGID_00000091696725546357479570000015975112052212810148_);" d="M44.6,1.1c-23.5,0-42.5,19-42.5,42.5
		c0,23.3,18.8,42.2,42.1,42.5l-14.3-58l57.2,14l0,0l-57.2-14c0,0-5.7-21.5,10.7-26.8C41.9,1.2,43.3,1.1,44.6,1.1"/>
	
		<linearGradient id="SVGID_00000147905389866968740820000007473386561505326210_" gradientUnits="userSpaceOnUse" x1="-202.6616" y1="598.3503" x2="-201.6617" y2="598.3503" gradientTransform="matrix(0 -51.294 51.294 0 -30629.918 -10309.624)">
		<stop  offset="0" style="stop-color:#59236A"/>
		<stop  offset="0.4796" style="stop-color:#7252A2"/>
		<stop  offset="1" style="stop-color:#00BFEF"/>
	</linearGradient>
	<path style="fill:url(#SVGID_00000147905389866968740820000007473386561505326210_);" d="M36.2,34.4L53.4,83
		c0.6,1.8,2.2,2.7,3.9,2.7c1.3,0,2.7-0.7,3.5-2L70,68.2L85.5,59c1.4-0.8,2-2.2,2-3.5c0,1.4-0.7,2.7-2,3.5L70,68.2L36.2,34.4"/>
	<g>
		<g>
			<defs>
				<path id="SVGID_00000108298051495546657990000016449038774673053343_" d="M36.2,34.4L70,68.2L85.5,59c1.4-0.8,2-2.2,2-3.5
					c0-1.6-0.9-3.2-2.7-3.9L36.2,34.4"/>
			</defs>
			<clipPath id="SVGID_00000180325613986724769860000004871713256180654257_">
				<use xlink:href="#SVGID_00000108298051495546657990000016449038774673053343_"  style="overflow:visible;"/>
			</clipPath>
			<g style="clip-path:url(#SVGID_00000180325613986724769860000004871713256180654257_);">
				
					<image style="overflow:visible;enable-background:new    ;" width="110" height="75" xlink:href="4E3D9CA6.jpeg"  transform="matrix(0.4736 0 0 -0.4736 35.7427 68.9926)">
				</image>
			</g>
		</g>
	</g>
	<g>
		<g>
			<defs>
				<path id="SVGID_00000026872887046332270560000001550624516992744851_" d="M44.6,1.1L44.6,1.1c-1.3,0-2.7,0.1-4,0.2
					C24.2,6.6,29.9,28.1,29.9,28.1l57.2,14C86.3,19.4,67.6,1.1,44.6,1.1"/>
			</defs>
			<clipPath id="SVGID_00000067931858146350087180000012533959158596458423_">
				<use xlink:href="#SVGID_00000026872887046332270560000001550624516992744851_"  style="overflow:visible;"/>
			</clipPath>
			<g style="clip-path:url(#SVGID_00000067931858146350087180000012533959158596458423_);">
				
					<image style="overflow:visible;enable-background:new    ;" width="135" height="90" xlink:href="4E3D9CAA.jpeg"  transform="matrix(0.4693 0 0 -0.4693 23.8706 42.5926)">
				</image>
			</g>
		</g>
	</g>
</g>
</svg>
